REM DIRINDEX 1\2\3,1\2\4,1\2\5,1\2\6
REM DIRNAME cjc157,folder01,folder02,folder03,folder04,folder05
TITLE ""
FILE "031 031.mp3" MP3
  TRACK 01 AUDIO
    TITLE "0:"
    INDEX 01 00:00:00
  TRACK 02 AUDIO
    TITLE "3:cjc157_1168"
    INDEX 01 00:00:11
  TRACK 03 AUDIO
    TITLE "0:"
    INDEX 01 00:01:42
  TRACK 04 AUDIO
    TITLE "4:cjc157_1169"
    INDEX 01 00:02:10
  TRACK 05 AUDIO
    TITLE "0:"
    INDEX 01 00:03:25
  TRACK 06 AUDIO
    TITLE "5:cjc157_1170"
    INDEX 01 00:03:72
  TRACK 07 AUDIO
    TITLE "0:"
    INDEX 01 00:06:33
  TRACK 08 AUDIO
    TITLE "3:cjc157_1171"
    INDEX 01 00:07:05
  TRACK 09 AUDIO
    TITLE "0:"
    INDEX 01 00:08:24
  TRACK 10 AUDIO
    TITLE "4:cjc157_1172"
    INDEX 01 00:08:72
  TRACK 11 AUDIO
    TITLE "0:"
    INDEX 01 00:09:73
  TRACK 12 AUDIO
    TITLE "5:cjc157_1173"
    INDEX 01 00:10:43
  TRACK 13 AUDIO
    TITLE "0:"
    INDEX 01 00:13:02
  TRACK 14 AUDIO
    TITLE "5:cjc157_1174"
    INDEX 01 00:13:45
  TRACK 15 AUDIO
    TITLE "0:"
    INDEX 01 00:15:62
  TRACK 16 AUDIO
    TITLE "3:cjc157_1175"
    INDEX 01 00:16:32
  TRACK 17 AUDIO
    TITLE "0:"
    INDEX 01 00:17:55
  TRACK 18 AUDIO
    TITLE "4:cjc157_1176"
    INDEX 01 00:18:25
  TRACK 19 AUDIO
    TITLE "0:"
    INDEX 01 00:19:26
  TRACK 20 AUDIO
    TITLE "5:cjc157_1177"
    INDEX 01 00:19:73
  TRACK 21 AUDIO
    TITLE "0:"
    INDEX 01 00:23:28
  TRACK 22 AUDIO
    TITLE "3:cjc157_1178"
    INDEX 01 00:23:73
  TRACK 23 AUDIO
    TITLE "0:"
    INDEX 01 00:25:03
  TRACK 24 AUDIO
    TITLE "4:cjc157_1179"
    INDEX 01 00:25:48
  TRACK 25 AUDIO
    TITLE "0:"
    INDEX 01 00:26:66
  TRACK 26 AUDIO
    TITLE "5:cjc157_1180"
    INDEX 01 00:27:34
  TRACK 27 AUDIO
    TITLE "0:"
    INDEX 01 00:30:65
  TRACK 28 AUDIO
    TITLE "5:cjc157_1181"
    INDEX 01 00:31:33
  TRACK 29 AUDIO
    TITLE "0:"
    INDEX 01 00:33:56
  TRACK 30 AUDIO
    TITLE "3:cjc157_1182"
    INDEX 01 00:34:28
  TRACK 31 AUDIO
    TITLE "0:"
    INDEX 01 00:35:31
  TRACK 32 AUDIO
    TITLE "4:cjc157_1183"
    INDEX 01 00:36:01
  TRACK 33 AUDIO
    TITLE "0:"
    INDEX 01 00:37:03
  TRACK 34 AUDIO
    TITLE "5:cjc157_1184"
    INDEX 01 00:37:48
  TRACK 35 AUDIO
    TITLE "0:"
    INDEX 01 00:40:46
  TRACK 36 AUDIO
    TITLE "3:cjc157_1185"
    INDEX 01 00:41:16
  TRACK 37 AUDIO
    TITLE "0:"
    INDEX 01 00:42:63
  TRACK 38 AUDIO
    TITLE "4:cjc157_1186"
    INDEX 01 00:43:33
  TRACK 39 AUDIO
    TITLE "0:"
    INDEX 01 00:44:56
  TRACK 40 AUDIO
    TITLE "5:cjc157_1187"
    INDEX 01 00:45:22
  TRACK 41 AUDIO
    TITLE "0:"
    INDEX 01 00:47:42
  TRACK 42 AUDIO
    TITLE "5:cjc157_1188"
    INDEX 01 00:48:16
  TRACK 43 AUDIO
    TITLE "0:"
    INDEX 01 00:51:15
  TRACK 44 AUDIO
    TITLE "3:cjc157_1189"
    INDEX 01 00:51:63
  TRACK 45 AUDIO
    TITLE "0:"
    INDEX 01 00:53:04
  TRACK 46 AUDIO
    TITLE "4:cjc157_1190"
    INDEX 01 00:53:47
  TRACK 47 AUDIO
    TITLE "0:"
    INDEX 01 00:54:64
  TRACK 48 AUDIO
    TITLE "5:cjc157_1191"
    INDEX 01 00:55:28
  TRACK 49 AUDIO
    TITLE "0:"
    INDEX 01 00:58:09
  TRACK 50 AUDIO
    TITLE "3:cjc157_1192"
    INDEX 01 00:58:50
  TRACK 51 AUDIO
    TITLE "0:"
    INDEX 01 00:59:69
  TRACK 52 AUDIO
    TITLE "4:cjc157_1193"
    INDEX 01 01:00:43
  TRACK 53 AUDIO
    TITLE "0:"
    INDEX 01 01:01:58
  TRACK 54 AUDIO
    TITLE "5:cjc157_1194"
    INDEX 01 01:02:28
  TRACK 55 AUDIO
    TITLE "0:"
    INDEX 01 01:05:36
  TRACK 56 AUDIO
    TITLE "3:cjc157_1195"
    INDEX 01 01:06:06
  TRACK 57 AUDIO
    TITLE "0:"
    INDEX 01 01:07:49
  TRACK 58 AUDIO
    TITLE "4:cjc157_1196"
    INDEX 01 01:08:21
  TRACK 59 AUDIO
    TITLE "0:"
    INDEX 01 01:09:24
  TRACK 60 AUDIO
    TITLE "5:cjc157_1197"
    INDEX 01 01:09:69
  TRACK 61 AUDIO
    TITLE "0:"
    INDEX 01 01:13:30
  TRACK 62 AUDIO
    TITLE "5:cjc157_1198"
    INDEX 01 01:13:71
  TRACK 63 AUDIO
    TITLE "0:"
    INDEX 01 01:17:24
  TRACK 64 AUDIO
    TITLE "3:cjc157_1199"
    INDEX 01 01:17:67
  TRACK 65 AUDIO
    TITLE "0:"
    INDEX 01 01:19:40
  TRACK 66 AUDIO
    TITLE "4:cjc157_1200"
    INDEX 01 01:20:10
  TRACK 67 AUDIO
    TITLE "0:"
    INDEX 01 01:21:27
  TRACK 68 AUDIO
    TITLE "5:cjc157_1201"
    INDEX 01 01:21:72
  TRACK 69 AUDIO
    TITLE "0:"
    INDEX 01 01:25:35
  TRACK 70 AUDIO
    TITLE "5:cjc157_1202"
    INDEX 01 01:26:05
  TRACK 71 AUDIO
    TITLE "0:"
    INDEX 01 01:28:74
